<svg width="169" height="58" viewBox="0 0 169 58" fill="none" xmlns="http://www.w3.org/2000/svg">
<g clip-path="url(#clip0_70_4)">
<path d="M78.35 6.93C78.35 6.93 58.79 3.38 37.18 11.68C37.96 10.49 38.41 9.08 38.41 7.55C38.41 3.38 35.03 0 30.86 0C26.69 0 23.31 3.38 23.31 7.55C23.31 11.33 26.1 14.46 29.73 15.01C19.18 20.42 8.61 29.01 0 42.52C0 42.52 9.8 32.36 18.46 30.58C18.46 30.58 14.66 42.92 14.21 57.06C14.2 57.06 26.55 11.55 78.35 6.93Z" fill="#EF3C7C"/>
<path d="M168.71 42.52C160.1 29.01 149.53 20.42 138.98 15.01C142.61 14.46 145.4 11.34 145.4 7.55C145.4 3.38 142.02 0 137.85 0C133.68 0 130.3 3.38 130.3 7.55C130.3 9.07 130.76 10.49 131.53 11.68C109.92 3.38 90.36 6.93 90.36 6.93C142.16 11.56 154.51 57.06 154.51 57.06C154.05 42.92 150.26 30.58 150.26 30.58C158.91 32.36 168.71 42.52 168.71 42.52Z" fill="#54DE31"/>
<path d="M84.36 12.19C32.06 13.7 23.32 57.06 23.32 57.06C42.25 18.05 84.36 20.36 84.36 20.36C84.36 20.36 126.48 18.04 145.4 57.06C145.4 57.06 136.66 13.7 84.36 12.19Z" fill="white"/>
</g>
<defs>
<clipPath id="clip0_70_4">
<rect width="168.71" height="57.06" fill="white"/>
</clipPath>
</defs>
</svg>
