<svg width="26" height="27" viewBox="0 0 26 27" fill="none" xmlns="http://www.w3.org/2000/svg">
<path d="M15.8656 5.69175C16.9879 5.91527 18.0192 6.47557 18.8278 7.30094C19.6363 8.12631 20.1851 9.1792 20.4041 10.3248L15.8656 5.69175ZM15.8656 1C18.1972 1.26442 20.3714 2.33032 22.0313 4.02267C23.6912 5.71502 24.738 7.93324 25 10.3131L15.8656 1ZM23.851 19.6732V23.192C23.8523 23.5186 23.7868 23.842 23.6586 24.1413C23.5304 24.4406 23.3424 24.7093 23.1066 24.9301C22.8708 25.1509 22.5924 25.3191 22.2893 25.4237C21.9861 25.5284 21.6649 25.5672 21.3462 25.5378C17.8106 25.1457 14.4145 23.9123 11.4306 21.9369C8.65443 20.1361 6.30076 17.7333 4.53669 14.8993C2.59489 11.8394 1.38647 8.35548 1.00933 4.72994C0.980614 4.40558 1.01837 4.07868 1.1202 3.77004C1.22203 3.4614 1.3857 3.17778 1.60078 2.93725C1.81586 2.69672 2.07765 2.50454 2.36948 2.37295C2.6613 2.24136 2.97677 2.17324 3.29579 2.17294H6.74273C7.30034 2.16733 7.84091 2.36891 8.2637 2.74009C8.68649 3.11127 8.96264 3.62673 9.04069 4.19039C9.18617 5.31649 9.45598 6.42217 9.84497 7.48634C9.99956 7.90616 10.033 8.36243 9.94138 8.80106C9.84974 9.2397 9.63685 9.64233 9.32793 9.96124L7.86873 11.4509C9.50436 14.3874 11.8861 16.8188 14.7626 18.4885L16.2218 16.9989C16.5342 16.6835 16.9286 16.4662 17.3583 16.3726C17.788 16.2791 18.2349 16.3132 18.6461 16.471C19.6886 16.8681 20.7717 17.1436 21.8748 17.2921C22.4329 17.3725 22.9426 17.6595 23.307 18.0985C23.6714 18.5375 23.865 19.0979 23.851 19.6732Z" stroke="#FFCC33" stroke-width="2" stroke-linecap="round" stroke-linejoin="round"/>
</svg>
